<svg width="24" height="24" viewBox="0 0 24 24" fill="none" xmlns="http://www.w3.org/2000/svg">
<path d="M11.0065 21.0001H9.60546C6.02021 21.0001 4.22759 21.0001 3.11379 19.8652C2 18.7302 2 16.9035 2 13.2501C2 9.59674 2 7.77004 3.11379 6.63508C4.22759 5.50012 6.02021 5.50012 9.60546 5.50012H13.4082C16.9934 5.50012 18.7861 5.50012 19.8999 6.63508C20.7568 7.50831 20.9544 8.79102 21 11.0001" stroke="#025D2D" stroke-width="1.5" stroke-linecap="round"/>
<path d="M20.0169 20.0233L22 22M21.053 17.5265C21.053 15.5789 19.4741 14 17.5265 14C15.5788 14 14 15.5789 14 17.5265C14 19.4742 15.5788 21.0531 17.5265 21.0531C19.4741 21.0531 21.053 19.4742 21.053 17.5265Z" stroke="#025D2D" stroke-width="1.5" stroke-linecap="round" stroke-linejoin="round"/>
<path d="M16 5.5L15.9006 5.19094C15.4056 3.65089 15.1581 2.88087 14.5688 2.44043C13.9796 2 13.1969 2 11.6315 2H11.3684C9.80304 2 9.02035 2 8.43111 2.44043C7.84186 2.88087 7.59435 3.65089 7.09934 5.19094L7 5.5" stroke="#025D2D" stroke-width="1.5"/>
</svg>
