<svg viewBox="0 0 100 19" fill="none" xmlns="http://www.w3.org/2000/svg"><path d="M0 13.165V4.959h2.929v7.913c0 2.226 1.113 3.282 2.841 3.282 1.992 0 3.396-1.289 3.396-4.716V4.96h2.87v13.535H9.167v-2.05h-.056a4.373 4.373 0 0 1-4.16 2.49C2.284 18.937 0 17.323 0 13.164ZM27.419 10.176v8.319h-2.872v-7.82c0-2.315-1.171-3.283-3.105-3.283-2.109 0-3.603 1.26-3.603 4.628v6.476h-2.87V4.963h2.87v2.05h.058a4.78 4.78 0 0 1 4.422-2.49c2.9 0 5.097 1.553 5.097 5.653M30.345 18.494V4.962h2.872v2.256h-1.69l1.69 2.08v9.196h-2.872Z" fill="#092329"/><path d="M33.252 4.962h-2.87v13.533h2.87V4.962ZM36.291 18.495V4.96h2.871v2.11h.057a4.155 4.155 0 0 1 4.071-2.547 4.083 4.083 0 0 1 4.101 2.753h.057a4.453 4.453 0 0 1 4.247-2.753c2.547 0 4.628 1.584 4.628 5.594v8.376h-2.87v-8.23c0-1.875-.938-2.87-2.667-2.87-1.757 0-3.046 1.142-3.046 4.074v7.027h-2.87v-8.231c0-1.875-.938-2.87-2.695-2.87-1.728 0-3.017 1.142-3.017 4.1v7H36.29ZM64.323 11.728c0-4.305 3.076-7.205 7.44-7.205A8.12 8.12 0 0 1 76.391 5.9l-1.347 2.433a6.435 6.435 0 0 0-3.369-1.025c-2.607 0-4.306 1.875-4.306 4.423s1.698 4.423 4.306 4.423a6.434 6.434 0 0 0 3.369-1.026l1.347 2.433a8.12 8.12 0 0 1-4.628 1.378c-4.365 0-7.44-2.9-7.44-7.206M85.764 4.552V7.92h-.44c-2.811 0-4.305 1.348-4.305 4.57v6.004h-2.871V4.962h2.87V7.92h.057a4.515 4.515 0 0 1 4.482-3.369h.207ZM62.12 4.963h-2.87v13.532h2.87V4.963ZM92.558 4.542l-.001.002-.016.001v2.823c.038-.003.075-.007.114-.008a4.375 4.375 0 1 1-4.22 4.524c-.045-1.108.786-.66 2.862.082V9.11c-4.662-1.786-5.797-.635-5.676 2.868a7.19 7.19 0 1 0 6.937-7.437ZM33.527 1.788a1.727 1.727 0 1 0-1.726 1.725c.453-.011.886-.19 1.216-.501.316-.331.498-.768.509-1.226M62.411 1.788a1.726 1.726 0 1 0-1.726 1.725c.453-.011.886-.19 1.216-.502.316-.33.498-.767.51-1.225" fill="#092329"/></svg>
